<svg xmlns="http://www.w3.org/2000/svg" viewBox="0 0 722.51 313.6">
  <path
    d="M343.83,205a63,63,0,0,0-10.52-11.82q-6.51-5.81-18.13-6.41A32.53,32.53,0,0,0,302.46,189a34.92,34.92,0,0,0-11.32,7A35.54,35.54,0,0,0,283,207.18a36.15,36.15,0,0,0,0,29.34,33.38,33.38,0,0,0,8.11,10.92,34.75,34.75,0,0,0,11.32,7,35.36,35.36,0,0,0,12.72,2.41q11.82,0,18.53-5.71a40.88,40.88,0,0,0,10.12-12.32h23.84a56.74,56.74,0,0,1-7.61,15.62,55.24,55.24,0,0,1-11.82,12.43,53.57,53.57,0,0,1-15.63,8.31,56.56,56.56,0,0,1-18.23,2.9,54.53,54.53,0,0,1-21.84-4.4,59.34,59.34,0,0,1-18-12,56.9,56.9,0,0,1-12-17.83,56.9,56.9,0,0,1,0-43.88,56.9,56.9,0,0,1,12-17.83,60.94,60.94,0,0,1,18-12.12,53.6,53.6,0,0,1,21.84-4.5,51.67,51.67,0,0,1,18,3.1,54.53,54.53,0,0,1,15,8.32,62.66,62.66,0,0,1,11.92,12.52,64.09,64.09,0,0,1,8.11,15.32Z"
    transform="translate(-30.1 -120)" />
  <path
    d="M384.5,199a54.5,54.5,0,0,1,12.22-18A56.12,56.12,0,0,1,437,164.1a55,55,0,0,1,22,4.51A59.05,59.05,0,0,1,489.37,199a56.6,56.6,0,0,1,0,44.28,55.84,55.84,0,0,1-12.32,18,54.8,54.8,0,0,1-18,12.22,57.88,57.88,0,0,1-44.27,0,57.74,57.74,0,0,1-30.25-30.25,57.78,57.78,0,0,1,0-44.28ZM423.06,188a40.07,40.07,0,0,0-11.52,7.72,38.57,38.57,0,0,0-7.61,11.52A34.3,34.3,0,0,0,401.12,221a34.8,34.8,0,0,0,2.81,13.92,34.47,34.47,0,0,0,19.13,19.13A34.63,34.63,0,0,0,437,256.86a34.21,34.21,0,0,0,13.73-2.81,38.44,38.44,0,0,0,11.52-7.61,40.25,40.25,0,0,0,7.71-11.52,33.87,33.87,0,0,0,2.9-13.92,33.39,33.39,0,0,0-2.9-13.72A35.72,35.72,0,0,0,450.71,188a33.47,33.47,0,0,0-13.73-2.9A33.87,33.87,0,0,0,423.06,188Z"
    transform="translate(-30.1 -120)" />
  <path
    d="M600.25,257.86a48.36,48.36,0,0,1-20.43,14q-11.82,4.22-21.43,4a46.23,46.23,0,0,1-19-4.21,58.19,58.19,0,0,1-17-11.62,61.21,61.21,0,0,1-12-17.83A53.3,53.3,0,0,1,505.7,220a53.91,53.91,0,0,1,4.51-22,59.63,59.63,0,0,1,29-29.55,46.53,46.53,0,0,1,19.34-4.31,70.87,70.87,0,0,1,20.73,3.51q11.31,3.51,20.93,15.33v-56.7h23.64V272.68H600.25Zm-67.71-23.74a38.41,38.41,0,0,0,7.62,11.52,36.49,36.49,0,0,0,11.51,7.81,35.33,35.33,0,0,0,14.13,2.81,34.8,34.8,0,0,0,13.92-2.81,36.65,36.65,0,0,0,11.52-7.81A39.84,39.84,0,0,0,599,234.12,34.21,34.21,0,0,0,601.86,220,33.8,33.8,0,0,0,599,206.07a35.75,35.75,0,0,0-19.23-19.23,33.87,33.87,0,0,0-13.92-2.9,34.38,34.38,0,0,0-14.13,2.9,39.89,39.89,0,0,0-11.51,7.72,38.48,38.48,0,0,0-7.62,11.51,34.88,34.88,0,0,0-2.8,13.93A35.31,35.31,0,0,0,532.54,234.12Z"
    transform="translate(-30.1 -120)" />
  <path
    d="M662.16,228.21a40.2,40.2,0,0,0,11.32,20.94q8.91,8.91,22.94,8.91a30.26,30.26,0,0,0,10.31-1.7,37.83,37.83,0,0,0,8.52-4.31,27.48,27.48,0,0,0,6.41-5.51,41.46,41.46,0,0,0,4.2-5.91H749.1a62.13,62.13,0,0,1-20,27.15q-13.43,10.32-32.65,10.31a55,55,0,0,1-22-4.4,56.28,56.28,0,0,1-29.85-29.85,56.53,56.53,0,0,1,0-43.78,56.34,56.34,0,0,1,12-17.93A58.27,58.27,0,0,1,674.38,170a54,54,0,0,1,22-4.5,59.91,59.91,0,0,1,20.83,4.1,53.93,53.93,0,0,1,19.43,12.52,55.25,55.25,0,0,1,12.62,19.34q4.61,11.52,2.81,26.74Zm67.51-18.43a31,31,0,0,0-12.62-17.63,35.94,35.94,0,0,0-20.63-6.41,31.37,31.37,0,0,0-20.64,7.11,39.32,39.32,0,0,0-12.22,16.93Z"
    transform="translate(-30.1 -120)" />
  <path
    d="M476.19,362.83a60,60,0,0,0-10.08-11.34q-6.24-5.57-17.39-6.14a31.09,31.09,0,0,0-12.19,2.11,33.61,33.61,0,0,0-10.86,6.72,34.27,34.27,0,0,0-7.78,10.76,34.71,34.71,0,0,0,0,28.14,32.14,32.14,0,0,0,7.78,10.47,33.46,33.46,0,0,0,10.86,6.73,34.1,34.1,0,0,0,12.19,2.3q11.34,0,17.77-5.47a39.29,39.29,0,0,0,9.7-11.82h22.86a54.14,54.14,0,0,1-7.3,15,52.83,52.83,0,0,1-11.33,11.91,51.32,51.32,0,0,1-15,8A54.3,54.3,0,0,1,448,432.94,52.24,52.24,0,0,1,427,428.72a56.59,56.59,0,0,1-17.29-11.53,54.22,54.22,0,0,1-11.53-17.1,54.53,54.53,0,0,1,0-42.07,54.29,54.29,0,0,1,11.53-17.09A58.18,58.18,0,0,1,427,329.3,51.31,51.31,0,0,1,448,325a49.6,49.6,0,0,1,17.28,3,52.58,52.58,0,0,1,14.41,8,59.75,59.75,0,0,1,11.43,12,60.86,60.86,0,0,1,7.78,14.69Z"
    transform="translate(-30.1 -120)" />
  <path
    d="M615.08,427.18H592.6V367.82a26.34,26.34,0,0,0-7.1-17.48,27.71,27.71,0,0,0-8.27-6.24,23.69,23.69,0,0,0-10.75-2.4,25.61,25.61,0,0,0-11.05,2.3,23.93,23.93,0,0,0-8.16,6.15,25.52,25.52,0,0,0-5.29,8.26,25,25,0,0,0-1.82,9.22v59.55H517.88V286.75h22.28V339.2c.13-.13,1-1.06,2.59-2.79a42.6,42.6,0,0,1,6.82-5.66,51.64,51.64,0,0,1,10.95-5.58,41.87,41.87,0,0,1,15-2.49,37.3,37.3,0,0,1,16.13,3.45,40.74,40.74,0,0,1,12.49,9,41.24,41.24,0,0,1,8.07,12.68,38.07,38.07,0,0,1,2.88,14.41Z"
    transform="translate(-30.1 -120)" />
  <path d="M653.88,306.73H630.44V287.14h23.44Zm0,120.45H630.44v-97h23.44Z" transform="translate(-30.1 -120)" />
  <path d="M666.94,427.18V286.75h23.44V427.18Z" transform="translate(-30.1 -120)" />
  <path d="M703.44,427.18V286.75h23.44V427.18Z" transform="translate(-30.1 -120)" />
  <path
    d="M342.08,409.75a58.69,58.69,0,0,1-15.4,10.71,40.2,40.2,0,0,1-17.7,4.28,43,43,0,0,1-14.32-2.31,33.57,33.57,0,0,1-11.53-6.75,31.23,31.23,0,0,1-7.74-10.87,36.7,36.7,0,0,1-2.8-14.81A26.1,26.1,0,0,1,275,378.8a36,36,0,0,1,6.18-9.22,50.17,50.17,0,0,1,8.56-7.41q4.77-3.3,9.71-6.09A130.07,130.07,0,0,1,291,344.14a25.67,25.67,0,0,1-1.4-24.54,27.74,27.74,0,0,1,6.59-8.64,31.35,31.35,0,0,1,9.38-5.68,30.14,30.14,0,0,1,11-2.06q12.84,0,21.65,7.41T347,332a25,25,0,0,1-1.81,9.63,31.61,31.61,0,0,1-4.78,8,35.82,35.82,0,0,1-6.5,6.75,82.25,82.25,0,0,1-7.33,5.27l16.63,21.24a34.15,34.15,0,0,0,3.29-9,39.22,39.22,0,0,0,1.32-8h17.62a94,94,0,0,1-3.62,16.3,49.38,49.38,0,0,1-7.58,15l19.43,24.53H350.64Zm-32.77-41.82a37.56,37.56,0,0,0-12.59,9.39,18.47,18.47,0,0,0-4.7,13.83,16.76,16.76,0,0,0,5.77,11.28,17.2,17.2,0,0,0,12,4.85,28.16,28.16,0,0,0,12.18-2.8,34.46,34.46,0,0,0,10.21-7.24Zm17.37-45.69q-2.55-4.37-9.14-4.36-5.76,0-8.72,3.54a11.85,11.85,0,0,0-2.8,8.31,17.36,17.36,0,0,0,3.37,10.21,50.42,50.42,0,0,0,7.17,8.23,39.13,39.13,0,0,0,8.64-7.24,14.18,14.18,0,0,0,4-9.72A17.57,17.57,0,0,0,326.68,322.24Z"
    transform="translate(-30.1 -120)" />
  <path
    d="M185.89,301.81c6.27.31,12,.19,17.67.93,21.06,2.75,38,21.55,38.25,42.83.29,27.08.1,54.16.08,81.24,0,4.08-2,5.78-6.44,5.79h-197c-6,0-7.35-1.4-7.35-7.4q0-38.26,0-76.53c0-26.87,19.65-46.53,46.49-46.56h9.73a72.92,72.92,0,0,1-18.62-32c-6,2.95-12.17,1.91-18.24,1.82a14.63,14.63,0,0,1-14.28-14.3q-.25-20.7,0-41.41c.06-5.54,2.91-9.79,7.76-12.41a4.48,4.48,0,0,0,2.71-4c3.81-40.36,32.51-71.52,72.67-77.31,24.73-3.57,48.92-1.19,70.22,13.89,21.82,15.44,34.2,36.45,36.77,63.12a4.72,4.72,0,0,0,2.74,4.34,14,14,0,0,1,7.8,13c.07,13.38.09,26.77,0,40.15a14.8,14.8,0,0,1-15,14.95c-5.78,0-11.74,1.12-17.52-1.91A72.44,72.44,0,0,1,185.89,301.81Zm-9.23,9.95c0,7.36,0,13.93,0,20.5a40.29,40.29,0,0,1-36.37,40c-19.5,2.15-38.24-11.31-42.79-31A55.51,55.51,0,0,1,96.4,330.4c-.17-6-.05-12-.05-18.16-7.92,0-15.46-.39-22.94.09-15.89,1-29.9,13.46-31.5,29.1-1.19,11.7-.52,23.58-.66,35.38,0,.15.25.31.34.41H66.33v-9.61H76.41v54.73H196.8V367.55h10.09v9.68h25c0-9.64,0-19.13,0-28.62a39.33,39.33,0,0,0-.25-5.32c-2.2-15.42-12.61-27.6-27.37-30.13C195.38,311.64,186.16,312.17,176.66,311.76Zm-45.32-84.94h-3.63c-11.28,0-22.57,0-33.86,0-1.07,0-2.57.08-3.14.75a28.15,28.15,0,0,1-14.77,9c.37,8.45,0,16.9,1.24,25.1,4,25.7,24.85,46.14,50.07,49.78a60.52,60.52,0,0,0,63.49-33.32c6.6-13.31,6.29-27.44,5.86-41.64-7.11-2.52-9.8-4.25-13.43-7.87a6.29,6.29,0,0,0-3.92-1.72c-11.39-.13-22.78-.08-34.17-.08h-3.32V216.67h34.89c0-5.06.11-9.86,0-14.66a10.33,10.33,0,0,0-15.77-8.77c-.73.42-1.41.9-2.1,1.37a38.64,38.64,0,0,1-28.3,6.51,42,42,0,0,1-17.71-7.48,9.83,9.83,0,0,0-11-.64,10.16,10.16,0,0,0-5.44,9.55c0,4.66,0,9.32,0,14.26h35Zm-55.06-1.16c6.21-2.34,9.86-7.42,10-13.6.09-3.55,0-7.1.06-10.65a20.37,20.37,0,0,1,16-19.23c6.47-1.47,12.15.3,17.43,4,6.64,4.66,14.06,6.77,22,4.76a51.61,51.61,0,0,0,13-5.81c7-4.07,14-4.83,21.13-1s10.66,10.06,10.83,18.15c.07,3.34-.06,6.69,0,10,.2,6.16,4.3,11.6,9.79,13.07a4.49,4.49,0,0,0,.19-.85c0-13.06.23-26.13-.08-39.18a24.63,24.63,0,0,0-24.2-23.7q-35.9-.28-71.79,0a24.43,24.43,0,0,0-23.76,20.25c-.7,4.08-.55,8.32-.58,12.49C76.23,204.7,76.28,215,76.28,225.66Zm140.07-24.14a13.16,13.16,0,0,0,0-1.41c-3.59-30.53-19.67-51.7-47.91-63.62-12-5.09-24.8-5.21-37.6-5.05A75.39,75.39,0,0,0,58.9,187.2c-1.24,4.65-1.78,9.49-2.66,14.3l10,.7c0-4.63,0-9.32,0-14,0-21.55,15.15-36.64,36.73-36.66q33.56,0,67.11,0c21.55,0,36.65,15.13,36.69,36.69,0,4.68,0,9.36,0,14ZM106.41,315.39c0,6.13-.1,11.84,0,17.54.32,14.78,11,26.65,26.11,29.11,13.53,2.22,27.52-6.34,32.3-19.79,3.09-8.69,1.28-17.63,1.86-26.93C146.35,324.44,126.53,324.37,106.41,315.39ZM46.17,236.84c0,6.48-.05,13,0,19.45,0,3.71,1.92,5.57,5.61,5.65,3,.07,6.07.08,9.1,0,3.33-.1,5.3-2,5.32-5.29q.09-19.77,0-39.52c0-3.34-2-5.22-5.29-5.33-2.82-.09-5.64,0-8.46,0-4.51,0-6.27,1.77-6.29,6.25C46.14,224.3,46.16,230.57,46.17,236.84Zm160.6,0c0,6.38,0,12.75,0,19.13,0,4.08,1.87,5.87,6,5.93,2.93,0,5.86.08,8.78,0,3.32-.11,5.26-2,5.28-5.34q.09-19.75,0-39.52c0-3.32-2-5.18-5.33-5.28-2.92-.09-5.85-.06-8.78,0-4.08.05-5.89,1.87-5.92,6C206.74,224.14,206.77,230.51,206.77,236.89ZM41.28,422.34H66V387.6H41.28Zm190.45-34.69H207V422.4h24.71Z"
    transform="translate(-30.1 -120)" style="stroke:#000;stroke-miterlimit:10;stroke-width:2px" />
  <path
    d="M111.53,277.15h9.77c.42,4.94,2.19,9.51,6.59,12a20.38,20.38,0,0,0,9.67,2.73c7.55,0,12.85-5.85,14.14-14.68h9.51c1.67,11.48-9.9,24-23,24.85C123.92,303,111.43,291.52,111.53,277.15Z"
    transform="translate(-30.1 -120)" style="stroke:#000;stroke-miterlimit:10;stroke-width:2px" />
  <path
    d="M96.52,237h9.73c.54,4-1.2,10,5.48,9.7,5.94-.23,4.39-5.68,4.82-9.65h9.73c.82,6.91-.32,13-6.38,17.19a14.08,14.08,0,0,1-15.67.79C97.24,251.15,95.69,244.72,96.52,237Z"
    transform="translate(-30.1 -120)" style="stroke:#000;stroke-miterlimit:10;stroke-width:2px" />
  <path
    d="M146.74,236.93h9.85c0,1.66-.07,3.28,0,4.89a5,5,0,1,0,10,.13c.11-1.54,0-3.11,0-4.87h9.86c.85,6.82-.33,12.86-6.29,17.14a14.67,14.67,0,0,1-16.5.39C147.2,250.48,145.91,244.25,146.74,236.93Z"
    transform="translate(-30.1 -120)" style="stroke:#000;stroke-miterlimit:10;stroke-width:2px" />
  <path d="M131.61,276.77V237h9.66v39.73Z" transform="translate(-30.1 -120)"
    style="stroke:#000;stroke-miterlimit:10;stroke-width:2px" />
</svg>